<svg xmlns="http://www.w3.org/2000/svg" viewBox="0 0 500 500" xmlns:bx="https://boxy-svg.com">
  <defs>
    <bx:export>
      <bx:file format="html" href="#path13056" excluded="true"></bx:file>
      <bx:file format="svg" href="#path13056"></bx:file>
      <bx:file format="svg" path="Untitled 2.svg"></bx:file>
    </bx:export>
  </defs>
  <g id="svg13063" transform="matrix(1, 0, 0, 1, 109.300388, 19.106482)">
    <g stroke-linejoin="bevel" stroke-width="0.25" stroke="#fff" id="g13061" transform="matrix(1, 0, 0, 1, -114.446384, 3.708507)">
      <g id="use13054" fill="none" stroke-width="1.5">
        <path d="M 252.91 87.858 L 252.92 85.714 L 250.49 85.65 L 250.47 87.23 L 252.91 87.858 Z M 341.66 78.673 L 355.44 64.344 L 347.93 70.069 L 341.66 78.673 Z M 304.94 72.815 L 307.35 74.817 L 310.42 73.969 L 313.14 76.239 L 312.67 70.345 L 316.86 69.379 L 322.38 73.164 L 327 72.278 L 330.38 76.734 L 333.64 76.59 L 336.83 73.969 L 344.36 73.642 L 347.93 70.064 L 355.44 64.341 L 351.11 61.809 L 325.87 52.908 L 315.92 55.151 L 315.92 59.649 L 298.28 59.649 L 298.28 65.461 L 300.64 68.413 L 305.69 66.373 L 308.7 68.413 L 305.05 70.184 L 304.94 72.815 Z M 313.14 76.245 L 310.42 73.975 L 307.35 74.823 L 309.078 81.926 L 315.97 81.867 L 322.58 83.961 L 324.27 86.698 L 330.752 84.041 L 320.2 75.194 L 315.81 75.194 L 313.14 76.245 Z M 322.38 73.165 L 316.86 69.38 L 312.67 70.346 L 313.14 76.24 L 315.81 75.189 L 320.2 75.189 L 333.154 83.593 L 332.4 79.849 L 337.21 78.469 L 337.48 76.421 L 330.38 76.735 L 327 72.279 L 322.38 73.165 Z M 324.26 86.695 L 338.44 82.065 L 333.154 83.595 L 330.873 84.139 L 324.26 86.695 Z M 338.01 80.71 L 333.97 79.399 L 332.4 79.851 L 333.154 83.595 L 338.44 82.065 L 342.33 80.3 L 338.01 80.71 Z M 336.83 73.972 L 333.64 76.593 L 337.48 76.423 L 337.21 78.471 L 333.97 79.399 L 338.01 80.71 L 342.33 80.3 L 341.66 78.671 L 344.36 73.645 L 336.83 73.972 Z M 298.28 77.744 L 301.16 80.372 L 304.29 80.063 L 302.11 76.222 L 299.75 75.638 L 298.28 77.744 Z M 292.09 76.657 L 296.36 77.744 L 298.28 77.744 L 299.75 75.638 L 294.3 73.167 L 292.09 73.645 L 292.09 76.657 Z M 297.74 80.71 L 301.16 80.372 L 298.28 77.744 L 296.36 77.744 L 297.74 80.71 Z M 265.19 47.96 L 264.06 48.227 L 264.35 48.444 L 264.03 49.894 L 260.86 48.444 L 260.87 50.326 L 265.19 51.428 L 268.3 52.851 L 269.5 51.825 L 269.07 48.769 L 267.49 49.249 L 265.19 47.96 Z M 260.88 52.477 L 263.29 53.28 L 263.95 54.644 L 264.47 56.099 L 268.3 52.851 L 265.19 51.428 L 260.87 50.326 L 260.88 52.477 Z M 273.12 51.825 L 269.5 51.825 L 264.47 56.099 L 265.27 58.304 L 272.48 59.454 L 276.98 58.472 L 274.3 57.382 L 275.91 56.355 L 273.12 51.825 Z M 263.08 46.237 L 262.7 47.203 L 264.06 48.227 L 265.19 47.96 L 267.49 49.249 L 269.07 48.769 L 268.58 45.288 L 267.68 46.133 L 263.08 46.237 Z M 272.48 59.457 L 265.27 58.307 L 265.72 59.559 L 263.14 62.776 L 263.14 64.596 L 272.89 64.596 L 273.83 66.378 L 272.14 69.027 L 273.62 69.646 L 274.02 68.418 L 279.8 68.418 L 278.52 69.746 L 280.3 70.753 L 282.7 70.565 L 280.42 67.653 L 286.42 66.378 L 287.95 62.942 L 276.98 58.475 L 272.48 59.457 Z M 258.75 31.297 L 248.65 38.705 L 248.65 45.294 L 247.26 47.471 L 251.06 51.846 L 257.26 46.356 L 254.36 42.756 L 260.89 35.619 L 262.18 35.619 L 260.4 31.297 L 258.75 31.297 Z M 240.94 47.967 L 246.85 47.001 L 247.26 47.472 L 248.65 45.295 L 248.65 38.706 L 258.76 31.298 L 264.35 31.298 L 264.35 29.453 L 258.62 29.745 L 238.97 43.345 L 240.94 47.967 Z M 264.35 31.297 L 260.41 31.297 L 262.18 35.619 L 263.22 35.619 L 260.08 42.732 L 263.75 44.584 L 269.34 44.584 L 272.48 40.96 L 267.27 29.3 L 264.35 29.448 L 264.35 31.297 Z M 263.25 53.287 L 260.84 52.484 L 260.85 54.087 L 263.91 54.651 L 263.25 53.287 Z M 355.42 64.351 L 335.583 31.713 L 316.72 26.215 L 311.58 25.808 L 314.05 31.431 L 294.18 31.968 L 275.61 39.591 L 273.16 34.923 L 280.22 35.189 L 283.66 33.471 L 270.13 29.157 L 267.25 29.304 L 272.46 40.964 L 269.32 44.588 L 268.56 45.298 L 269.05 48.779 L 269.48 51.835 L 273.1 51.835 L 275.89 56.365 L 274.28 57.392 L 276.96 58.482 L 287.93 62.949 L 286.4 66.385 L 287.12 68.102 L 285.35 68.585 L 285.66 71.409 L 292.07 73.654 L 294.28 73.176 L 299.73 75.647 L 302.09 76.231 L 300.62 73.654 L 300.62 68.425 L 298.26 65.473 L 298.26 59.661 L 315.9 59.661 L 315.9 55.163 L 325.85 52.92 L 351.09 61.821 L 355.42 64.351 Z M 256.25 65.097 L 253.76 67.138 L 257.38 68.483 L 261.24 67.817 L 264.3 64.599 L 263.09 64.599 L 263.09 63.838 L 256.25 65.097 Z M 254.4 63.347 L 256.25 65.097 L 263.09 63.838 L 263.09 62.779 L 256.89 62.026 L 256.63 61.924 L 254.4 63.347 Z M 241.34 68.324 L 243.56 68.483 L 245.57 68.019 L 244.85 65.844 L 242.96 65.844 L 241.73 66.411 L 241.34 68.324 Z M 249.84 63.347 L 254.4 63.347 L 256.63 61.924 L 252.27 60.206 L 248.37 61.414 L 249.84 63.347 Z M 219.2 84.307 L 220.1 84.375 L 221.14 75.639 L 217.76 75.074 L 217.59 81.462 L 219.2 84.307 Z M 272.09 69.027 L 273.78 66.378 L 272.84 64.596 L 269.95 64.596 L 272.09 69.027 Z M 263.9 54.647 L 260.84 54.083 L 257.62 54.189 L 256.89 53.52 L 252.27 54.647 L 251.86 54.642 L 252.27 60.203 L 256.64 61.921 L 256.89 62.023 L 263.09 62.776 L 265.67 59.559 L 265.22 58.307 L 264.42 56.102 L 263.9 54.647 Z M 264.3 64.596 L 261.24 67.814 L 263.98 72.364 L 270.82 71.585 L 272.77 72.122 L 273.57 69.646 L 272.09 69.027 L 269.95 64.596 L 264.3 64.596 Z M 251.85 54.642 L 245.92 54.574 L 245.65 53.52 L 243.57 53.52 L 243.99 54.535 L 240.87 56.404 L 240.59 61.789 L 242.48 62.776 L 241.73 66.408 L 242.96 65.841 L 247.36 65.841 L 247.74 65.73 L 250.93 64.794 L 249.84 63.344 L 248.37 61.411 L 252.27 60.203 L 251.85 54.642 Z M 243.57 53.52 L 245.65 53.52 L 245.54 53.074 L 246.22 49.252 L 244.35 49.226 L 243.02 52.224 L 243.57 53.52 Z M 249.12 52.182 L 247.95 51.023 L 246.91 51.45 L 246.59 53.093 L 248.53 53.074 L 249.12 52.182 Z M 250.93 64.792 L 247.36 65.839 L 244.85 65.839 L 245.57 68.014 L 249.38 67.133 L 253.76 67.133 L 255.59 65.629 L 256.25 65.092 L 254.4 63.342 L 249.84 63.342 L 250.93 64.792 Z M 253.11 82.182 L 249.24 82.182 L 249.24 83.149 L 250.69 84.142 L 253.11 84.517 L 253.11 82.182 Z M 242.96 76.733 L 242.96 80.706 L 244.81 80.706 L 244.81 77.27 L 242.96 76.733 Z M 241.34 68.315 L 240.99 70.022 L 243.23 71.043 L 245.83 71.043 L 253.83 79.026 L 254.24 82.423 L 255.71 81.564 L 256.17 79.122 L 257.99 78.757 L 248.23 70.31 L 251 70.144 L 249.38 67.129 L 243.56 68.474 L 241.34 68.315 Z M 243.89 73.996 L 243.89 75.634 L 244.81 75.981 L 245.22 73.996 L 243.89 73.996 Z M 225.43 63.956 L 225.43 65.137 L 228.75 66.931 L 229.19 72.814 L 234.11 75.961 L 235.63 73.996 L 242.83 74.048 L 243.04 71.043 L 243.23 71.043 L 240.99 70.022 L 242.48 62.77 L 235.93 59.353 L 228.25 63.956 L 225.43 63.956 Z M 237.76 58.26 L 235.93 59.353 L 239.6 61.267 L 240.65 60.701 L 240.69 59.815 L 237.76 58.26 Z M 240.69 59.815 L 240.87 56.398 L 237.76 58.26 L 240.69 59.815 Z M 239.6 61.267 L 240.59 61.783 L 240.64 60.701 L 239.6 61.267 Z M 227.58 52.897 L 227.62 55.366 L 225.93 56.292 L 227.42 58.461 L 224.4 61.325 L 228.39 60.6 L 232.45 59.956 L 232.71 58.466 L 233.54 58.466 L 233.72 56.803 L 231.09 56.248 L 227.8 48.688 L 225.29 48.611 L 225.29 52.682 L 227.58 52.897 Z M 224.4 54.681 L 224.4 53.068 L 221.46 52.869 L 223.15 55.124 L 224.4 54.681 Z M 218.48 55.054 L 218.48 59.457 L 220.17 59.446 L 220.17 57.943 L 223.39 58.386 L 223.15 55.124 L 221.46 52.869 L 218.48 55.054 Z M 220.1 84.374 L 227.15 84.901 L 234.11 75.965 L 229.19 72.818 L 217.81 72.9 L 217.76 75.073 L 221.14 75.638 L 220.1 84.374 Z M 235.72 80.614 L 235.72 78.723 L 233.54 80.614 L 235.72 80.614 Z M 261.48 78.415 L 265.95 76.969 L 264.92 74.567 L 261.24 75.287 L 261.48 78.415 Z M 258.65 68.255 L 259.47 72.815 L 261.24 75.284 L 264.92 74.564 L 263.98 72.359 L 261.24 67.809 L 258.65 68.255 Z M 251 70.145 L 251.41 70.121 L 253.51 69.022 L 254.46 67.392 L 253.76 67.13 L 249.38 67.13 L 251 70.145 Z M 273.32 78.989 L 269.99 78.962 L 272.73 84.468 L 285.32 85.163 L 297.69 82.64 L 297.69 80.707 L 296.31 77.741 L 292.04 76.654 L 274.8 77.218 L 273.32 78.989 Z M 269.98 77.741 L 273.05 77.741 L 271.81 75.071 L 269.95 75.672 L 269.98 77.741 Z M 256.23 74.171 L 257.34 74.446 L 259.47 72.815 L 258.87 69.461 L 254.32 70.077 L 256.23 74.171 Z M 259.82 78.948 L 261.24 80.588 L 263.98 81.354 L 262.31 82.062 L 264.52 84.84 L 265.91 82.64 L 264.36 79.257 L 267.44 77.741 L 269.98 77.741 L 269.95 75.672 L 259.82 78.948 Z M 257.38 68.478 L 254.46 67.395 L 253.51 69.025 L 251.41 70.124 L 252.14 70.08 L 255.53 74 L 256.23 74.174 L 254.32 70.08 L 258.87 69.464 L 258.65 68.258 L 257.38 68.478 Z M 258.67 74.778 L 260.27 73.927 L 259.47 72.818 L 257.34 74.449 L 258.67 74.778 Z M 258.67 74.778 L 259.57 78.659 L 259.82 78.951 L 261.48 78.415 L 261.24 75.287 L 260.27 73.927 L 258.67 74.778 Z M 265.95 76.969 L 271.81 75.074 L 272.77 72.12 L 270.82 71.583 L 263.98 72.362 L 265.95 76.969 Z M 282.55 86.579 L 278.96 87.908 L 281.53 88.552 L 282.55 86.579 Z M 294.09 83.386 L 297.69 82.651 L 294.09 83.386 Z M 285.32 85.166 L 294.09 83.378 L 285.32 85.166 Z"></path>
      </g>
      <g id="a" fill="none">
        <path d="M 252.91 87.858 L 252.92 85.714 L 250.49 85.65 L 250.47 87.23 L 252.91 87.858 Z M 341.66 78.673 L 355.44 64.344 L 341.66 78.673 Z M 304.94 72.815 L 307.35 74.817 L 310.42 73.969 L 313.14 76.239 L 312.67 70.345 L 316.86 69.379 L 322.38 73.164 L 327 72.278 L 330.38 76.734 L 333.64 76.59 L 336.83 73.969 L 349.435 71.268 L 355.44 64.341 L 351.11 61.809 L 325.87 52.908 L 315.92 55.151 L 315.92 59.649 L 298.28 59.649 L 298.28 65.461 L 300.64 68.413 L 305.69 66.373 L 308.7 68.413 L 305.05 70.184 L 304.94 72.815 Z M 313.14 76.245 L 310.42 73.975 L 307.35 74.823 L 308.939 81.69 L 315.97 81.867 L 322.58 83.961 L 324.27 86.698 L 331.822 84.379 L 320.2 75.194 L 315.81 75.194 L 313.14 76.245 Z M 322.38 73.165 L 316.86 69.38 L 312.67 70.346 L 313.14 76.24 L 315.81 75.189 L 320.2 75.189 L 331.776 84.366 L 333.154 83.593 L 332.4 79.849 L 337.21 78.469 L 337.48 76.421 L 330.38 76.735 L 327 72.279 L 322.38 73.165 Z M 324.26 86.695 L 338.44 82.065 L 333.154 83.595 L 324.26 86.695 Z M 338.01 80.71 L 333.97 79.399 L 332.4 79.851 L 333.154 83.595 L 338.44 82.065 L 342.33 80.3 L 338.01 80.71 Z M 336.83 73.972 L 333.64 76.593 L 337.48 76.423 L 337.21 78.471 L 333.97 79.399 L 338.01 80.71 L 342.33 80.3 L 341.66 78.671 L 348.674 71.438 L 336.83 73.972 Z M 298.28 77.744 L 301.16 80.372 L 304.29 80.063 L 302.11 76.222 L 299.75 75.638 L 298.28 77.744 Z M 292.09 76.657 L 296.36 77.744 L 298.28 77.744 L 299.75 75.638 L 294.3 73.167 L 292.09 73.645 L 292.09 76.657 Z M 297.74 80.71 L 301.16 80.372 L 298.28 77.744 L 296.36 77.744 L 297.74 80.71 Z M 265.19 47.96 L 264.06 48.227 L 264.35 48.444 L 264.03 49.894 L 260.86 48.444 L 260.87 50.326 L 265.19 51.428 L 268.3 52.851 L 269.5 51.825 L 269.07 48.769 L 267.49 49.249 L 265.19 47.96 Z M 260.88 52.477 L 263.29 53.28 L 263.95 54.644 L 264.47 56.099 L 268.3 52.851 L 265.19 51.428 L 260.87 50.326 L 260.88 52.477 Z M 273.12 51.825 L 269.5 51.825 L 264.47 56.099 L 265.27 58.304 L 272.48 59.454 L 276.98 58.472 L 274.3 57.382 L 275.91 56.355 L 273.12 51.825 Z M 263.08 46.237 L 262.7 47.203 L 264.06 48.227 L 265.19 47.96 L 267.49 49.249 L 269.07 48.769 L 268.58 45.288 L 267.68 46.133 L 263.08 46.237 Z M 272.48 59.457 L 265.27 58.307 L 265.72 59.559 L 263.14 62.776 L 263.14 64.596 L 272.89 64.596 L 273.83 66.378 L 272.14 69.027 L 273.62 69.646 L 274.02 68.418 L 279.8 68.418 L 278.52 69.746 L 280.3 70.753 L 282.7 70.565 L 280.42 67.653 L 286.42 66.378 L 287.95 62.942 L 276.98 58.475 L 272.48 59.457 Z M 258.75 31.297 L 248.65 38.705 L 248.65 45.294 L 247.26 47.471 L 251.06 51.846 L 257.26 46.356 L 254.36 42.756 L 260.89 35.619 L 262.18 35.619 L 260.4 31.297 L 258.75 31.297 Z M 240.94 47.967 L 246.85 47.001 L 247.26 47.472 L 248.65 45.295 L 248.65 38.706 L 258.76 31.298 L 264.35 31.298 L 264.35 29.453 L 258.62 29.745 L 238.97 43.345 L 240.94 47.967 Z M 264.35 31.297 L 260.41 31.297 L 262.18 35.619 L 263.22 35.619 L 260.08 42.732 L 263.75 44.584 L 269.34 44.584 L 272.48 40.96 L 267.27 29.3 L 264.35 29.448 L 264.35 31.297 Z M 263.25 53.287 L 260.84 52.484 L 260.85 54.087 L 263.91 54.651 L 263.25 53.287 Z M 355.42 64.351 L 335.784 31.713 L 316.72 26.215 L 311.58 25.808 L 314.05 31.431 L 294.18 31.968 L 275.61 39.591 L 273.16 34.923 L 280.22 35.189 L 283.66 33.471 L 270.13 29.157 L 267.25 29.304 L 272.46 40.964 L 269.32 44.588 L 268.56 45.298 L 269.05 48.779 L 269.48 51.835 L 273.1 51.835 L 275.89 56.365 L 274.28 57.392 L 276.96 58.482 L 287.93 62.949 L 286.4 66.385 L 287.12 68.102 L 285.35 68.585 L 285.66 71.409 L 292.07 73.654 L 294.28 73.176 L 299.73 75.647 L 302.09 76.231 L 300.62 73.654 L 300.62 68.425 L 298.26 65.473 L 298.26 59.661 L 315.9 59.661 L 315.9 55.163 L 325.85 52.92 L 351.09 61.821 L 355.42 64.351 Z M 256.25 65.097 L 253.76 67.138 L 257.38 68.483 L 261.24 67.817 L 264.3 64.599 L 263.09 64.599 L 263.09 63.838 L 256.25 65.097 Z M 254.4 63.347 L 256.25 65.097 L 263.09 63.838 L 263.09 62.779 L 256.89 62.026 L 256.63 61.924 L 254.4 63.347 Z M 241.34 68.324 L 243.56 68.483 L 245.57 68.019 L 244.85 65.844 L 242.96 65.844 L 241.73 66.411 L 241.34 68.324 Z M 249.84 63.347 L 254.4 63.347 L 256.63 61.924 L 252.27 60.206 L 248.37 61.414 L 249.84 63.347 Z M 219.2 84.307 L 220.1 84.375 L 221.14 75.639 L 217.76 75.074 L 217.59 81.462 L 219.2 84.307 Z M 272.09 69.027 L 273.78 66.378 L 272.84 64.596 L 269.95 64.596 L 272.09 69.027 Z M 263.9 54.647 L 260.84 54.083 L 257.62 54.189 L 256.89 53.52 L 252.27 54.647 L 251.86 54.642 L 252.27 60.203 L 256.64 61.921 L 256.89 62.023 L 263.09 62.776 L 265.67 59.559 L 265.22 58.307 L 264.42 56.102 L 263.9 54.647 Z M 264.3 64.596 L 261.24 67.814 L 263.98 72.364 L 270.82 71.585 L 272.77 72.122 L 273.57 69.646 L 272.09 69.027 L 269.95 64.596 L 264.3 64.596 Z M 251.85 54.642 L 245.92 54.574 L 245.65 53.52 L 243.57 53.52 L 243.99 54.535 L 240.87 56.404 L 240.59 61.789 L 242.48 62.776 L 241.73 66.408 L 242.96 65.841 L 247.36 65.841 L 247.74 65.73 L 250.93 64.794 L 249.84 63.344 L 248.37 61.411 L 252.27 60.203 L 251.85 54.642 Z M 243.57 53.52 L 245.65 53.52 L 245.54 53.074 L 246.22 49.252 L 244.35 49.226 L 243.02 52.224 L 243.57 53.52 Z M 249.12 52.182 L 247.95 51.023 L 246.91 51.45 L 246.59 53.093 L 248.53 53.074 L 249.12 52.182 Z M 250.93 64.792 L 247.36 65.839 L 244.85 65.839 L 245.57 68.014 L 249.38 67.133 L 253.76 67.133 L 255.59 65.629 L 256.25 65.092 L 254.4 63.342 L 249.84 63.342 L 250.93 64.792 Z M 253.11 82.182 L 249.24 82.182 L 249.24 83.149 L 250.69 84.142 L 253.11 84.517 L 253.11 82.182 Z M 242.96 76.733 L 242.96 80.706 L 244.81 80.706 L 244.81 77.27 L 242.96 76.733 Z M 241.34 68.315 L 240.99 70.022 L 243.23 71.043 L 245.83 71.043 L 253.83 79.026 L 254.24 82.423 L 255.71 81.564 L 256.17 79.122 L 257.99 78.757 L 248.23 70.31 L 251 70.144 L 249.38 67.129 L 243.56 68.474 L 241.34 68.315 Z M 243.89 73.996 L 243.89 75.634 L 244.81 75.981 L 245.22 73.996 L 243.89 73.996 Z M 225.43 63.956 L 225.43 65.137 L 228.75 66.931 L 229.19 72.814 L 234.11 75.961 L 235.63 73.996 L 242.83 74.048 L 243.04 71.043 L 243.23 71.043 L 240.99 70.022 L 242.48 62.77 L 235.93 59.353 L 228.25 63.956 L 225.43 63.956 Z M 237.76 58.26 L 235.93 59.353 L 239.6 61.267 L 240.65 60.701 L 240.69 59.815 L 237.76 58.26 Z M 240.69 59.815 L 240.87 56.398 L 237.76 58.26 L 240.69 59.815 Z M 239.6 61.267 L 240.59 61.783 L 240.64 60.701 L 239.6 61.267 Z M 227.58 52.897 L 227.62 55.366 L 225.93 56.292 L 227.42 58.461 L 224.4 61.325 L 228.39 60.6 L 232.45 59.956 L 232.71 58.466 L 233.54 58.466 L 233.72 56.803 L 231.09 56.248 L 227.8 48.688 L 225.29 48.611 L 225.29 52.682 L 227.58 52.897 Z M 224.4 54.681 L 224.4 53.068 L 221.46 52.869 L 223.15 55.124 L 224.4 54.681 Z M 218.48 55.054 L 218.48 59.457 L 220.17 59.446 L 220.17 57.943 L 223.39 58.386 L 223.15 55.124 L 221.46 52.869 L 218.48 55.054 Z M 220.1 84.374 L 227.15 84.901 L 234.11 75.965 L 229.19 72.818 L 217.81 72.9 L 217.76 75.073 L 221.14 75.638 L 220.1 84.374 Z M 235.72 80.614 L 235.72 78.723 L 233.54 80.614 L 235.72 80.614 Z M 261.48 78.415 L 265.95 76.969 L 264.92 74.567 L 261.24 75.287 L 261.48 78.415 Z M 258.65 68.255 L 259.47 72.815 L 261.24 75.284 L 264.92 74.564 L 263.98 72.359 L 261.24 67.809 L 258.65 68.255 Z M 251 70.145 L 251.41 70.121 L 253.51 69.022 L 254.46 67.392 L 253.76 67.13 L 249.38 67.13 L 251 70.145 Z M 273.32 78.989 L 269.99 78.962 L 272.73 84.468 L 285.32 85.163 L 297.69 82.64 L 297.69 80.707 L 296.31 77.741 L 292.04 76.654 L 274.8 77.218 L 273.32 78.989 Z M 269.98 77.741 L 273.05 77.741 L 271.81 75.071 L 269.95 75.672 L 269.98 77.741 Z M 256.23 74.171 L 257.34 74.446 L 259.47 72.815 L 258.87 69.461 L 254.32 70.077 L 256.23 74.171 Z M 259.82 78.948 L 261.24 80.588 L 263.98 81.354 L 262.31 82.062 L 264.52 84.84 L 265.91 82.64 L 264.36 79.257 L 267.44 77.741 L 269.98 77.741 L 269.95 75.672 L 259.82 78.948 Z M 257.38 68.478 L 254.46 67.395 L 253.51 69.025 L 251.41 70.124 L 252.14 70.08 L 255.53 74 L 256.23 74.174 L 254.32 70.08 L 258.87 69.464 L 258.65 68.258 L 257.38 68.478 Z M 258.67 74.778 L 260.27 73.927 L 259.47 72.818 L 257.34 74.449 L 258.67 74.778 Z M 258.67 74.778 L 259.57 78.659 L 259.82 78.951 L 261.48 78.415 L 261.24 75.287 L 260.27 73.927 L 258.67 74.778 Z M 265.95 76.969 L 271.81 75.074 L 272.77 72.12 L 270.82 71.583 L 263.98 72.362 L 265.95 76.969 Z M 282.55 86.579 L 278.96 87.908 L 281.53 88.552 L 282.55 86.579 Z M 294.09 83.386 L 297.69 82.651 L 294.09 83.386 Z M 285.32 85.166 L 294.09 83.378 L 285.32 85.166 Z" id="path13056"></path>
      </g>
    </g>
  </g>
</svg>